<svg width="43" height="48" viewBox="0 0 43 48" fill="none" xmlns="http://www.w3.org/2000/svg">
<g id="&#208;&#160;&#208;&#181;&#209;&#129;&#209;&#131;&#209;&#128;&#209;&#129; 1 3" clip-path="url(#clip0_505_51)">
<g id="&#208;&#161;&#208;&#187;&#208;&#190;&#208;&#185; 2">
<g id="&#208;&#161;&#208;&#187;&#208;&#190;&#208;&#185; 1">
<path id="Vector" d="M21.5038 0L29.5639 13.7925C25.6783 10.665 20.5533 8.5425 15.8769 9.63L21.5038 0ZM10.3489 39.495V38.145H11.8697V39.4875L10.3489 39.495ZM3.19363 45.495H5.17825C5.95731 45.5607 6.73795 45.3878 7.41379 45C7.64245 44.8035 7.82035 44.5561 7.93275 44.2783C8.04515 44.0005 8.08881 43.7003 8.06012 43.4025C8.07753 43.1295 8.03866 42.8558 7.94587 42.598C7.85308 42.3402 7.70829 42.1036 7.52025 41.9025C7.06717 41.533 6.48695 41.3503 5.90062 41.3925H3.19363V45.495ZM1.67286 46.7175V40.1775H5.89301C6.8938 40.1108 7.88446 40.4098 8.67604 41.0175C9.0087 41.3184 9.26931 41.6885 9.43897 42.101C9.60863 42.5135 9.68309 42.9581 9.65694 43.4025C9.66148 43.9582 9.52836 44.5066 9.26914 45C9.02376 45.4645 8.65937 45.8575 8.2122 46.14C7.87908 46.3317 7.51308 46.4613 7.13245 46.5225C6.5889 46.625 6.03551 46.6678 5.4824 46.65L1.67286 46.7175ZM33.6092 46.7175V40.1775H34.6661L39.3045 44.01C39.4566 44.1375 39.6163 44.265 39.7151 44.3625C39.8334 44.4736 39.9451 44.5913 40.0497 44.715C40.0497 44.3625 40.0497 44.0775 39.9965 43.965V40.215H41.3576V46.7175H40.3006L35.4569 42.705C35.3477 42.6184 35.2436 42.5258 35.1452 42.4275C35.0465 42.3557 34.9594 42.2698 34.8866 42.1725C34.9286 42.3631 34.959 42.5559 34.9779 42.75C34.9894 42.9023 34.9894 43.0552 34.9779 43.2075V46.71L33.6092 46.7175ZM26.0889 46.7175V41.3475H23.2755V46.68H21.7547V41.3475H18.8729L17.124 43.1775L20.675 46.68H18.5915L16.1963 44.1675L13.9531 46.68H12.1662L15.2838 43.35L12.113 40.1775H14.1508L16.2343 42.39L18.2493 40.1775H32.8488V41.295H27.6249V42.75H30.6665V43.8675H27.6249V45.465H32.902V46.6875L26.0889 46.7175ZM10.3489 48V40.1775H11.8697V48H10.3489ZM36.9625 26.415L43.0456 36.7275H34.0882C37.1298 35.0775 37.6925 30.7275 36.9473 26.415H36.9625ZM28.583 36.75H13.8011C21.7091 33.4725 14.3637 18.975 22.5075 19.5C25.1613 19.68 26.6516 22.98 24.0283 26.31C29.8453 23.7225 27.6782 17.25 22.8117 17.0925C10.0371 16.74 19.7245 35.8425 10.1208 35.3025C4.12131 34.95 5.97666 26.7975 12.6453 27.1275C11.454 26.7168 10.1905 26.5496 8.9316 26.636C7.67273 26.7224 6.44485 27.0606 5.32272 27.63L10.4477 18.87C11.2017 20.6681 12.5388 22.1688 14.2497 23.1375C10.6835 16.9425 12.6681 11.3775 20.5305 12.6C32.2861 14.4225 37.6164 34.08 31.2824 34.5C26.1346 34.8525 26.9786 27.3375 19.1162 28.2C22.8877 28.8525 24.8191 34.7175 28.583 36.75ZM7.00318 36.75H0L3.08718 31.5C3.04156 33.8025 4.79045 35.76 7.00318 36.75Z" fill="#DCE1FF"/>
</g>
</g>
</g>
<defs>
<clipPath id="clip0_505_51">
<rect width="43" height="48" fill="white"/>
</clipPath>
</defs>
</svg>
