<svg width="47" height="47" viewBox="0 0 47 47" fill="none" xmlns="http://www.w3.org/2000/svg">
<g id="&#208;&#162;&#208;&#147;">
<rect id="Rectangle 376" x="0.579102" width="46.3158" height="46.3158" rx="4" fill="#4094F7"/>
<path id="Vector" d="M11.6305 21.8991L26.9607 15.5828C28.474 14.9249 33.6059 12.8195 33.6059 12.8195C33.6059 12.8195 35.9745 11.8983 35.7772 14.1354C35.7114 15.0565 35.185 18.2804 34.6586 21.7675L33.0138 32.0973C33.0138 32.0973 32.8822 33.6105 31.7637 33.8737C30.6452 34.1369 28.8029 32.9526 28.474 32.6894C28.2108 32.492 23.5394 29.5313 21.8287 28.0838C21.3681 27.689 20.8418 26.8995 21.8945 25.9784C24.2631 23.8072 27.0923 21.1096 28.8029 19.3989C29.5925 18.6094 30.382 16.7671 27.0923 19.0041L17.8152 25.2546C17.8152 25.2546 16.7625 25.9126 14.7887 25.3204C12.8149 24.7283 10.512 23.9387 10.512 23.9387C10.512 23.9387 8.93297 22.9518 11.6305 21.8991Z" fill="white"/>
</g>
</svg>
