<svg width="47" height="47" viewBox="0 0 47 47" fill="none" xmlns="http://www.w3.org/2000/svg">
<g id="&#208;&#146;&#208;&#161;">
<rect id="Rectangle 377" x="0.68457" width="46.3158" height="46.3158" rx="4" fill="#4CCA5B"/>
<g id="Group 2">
<path id="Vector" d="M36.2122 11.9962C33.2293 9.01367 29.2628 7.37023 25.0368 7.36841C16.3284 7.36841 9.24159 14.4471 9.23811 23.1478C9.23709 25.929 9.96439 28.6439 11.3468 31.037L9.10547 39.214L17.4805 37.0198C19.788 38.2772 22.3861 38.9398 25.03 38.9408H25.0367H25.0368C33.7437 38.9408 40.8316 31.8609 40.8353 23.1606C40.8368 18.9438 39.1948 14.979 36.2122 11.9962ZM25.0368 36.2756H25.0316C22.675 36.2744 20.364 35.6422 18.3483 34.4471L17.8686 34.1629L12.8986 35.4649L14.2255 30.6251L13.913 30.1289C12.5984 28.0404 11.9045 25.627 11.9054 23.1488C11.9083 15.9171 17.7986 10.0337 25.0417 10.0337C28.5492 10.0352 31.8459 11.4012 34.3252 13.8802C36.8044 16.3592 38.1688 19.6547 38.1677 23.1595C38.1647 30.3915 32.2741 36.2756 25.0368 36.2756Z" fill="#E0E0E0"/>
<path id="Vector_2" d="M9.83008 38.3068L11.969 30.5033C10.6494 28.2195 9.95548 25.6284 9.95632 22.9747C9.95978 14.6716 16.723 7.9165 25.0328 7.9165C29.0659 7.91832 32.8513 9.48662 35.6974 12.333C38.5441 15.1794 40.1109 18.9628 40.1092 22.9865C40.1058 31.2898 33.3422 38.0456 25.0334 38.0456C25.0328 38.0456 25.0338 38.0456 25.0334 38.0456H25.0267C22.5035 38.0448 20.0243 37.4119 17.8224 36.2128L9.83008 38.3068Z" fill="url(#paint0_linear_505_61)"/>
<path id="Vector_3" fill-rule="evenodd" clip-rule="evenodd" d="M21.1319 16.4487C20.8397 15.7994 20.5319 15.7864 20.2538 15.775C20.0264 15.7653 19.766 15.7659 19.506 15.7659C19.2459 15.7659 18.8231 15.8636 18.4655 16.2537C18.1078 16.6439 17.0996 17.587 17.0996 19.5053C17.0996 21.4237 18.4981 23.2773 18.693 23.5377C18.8881 23.7977 21.3925 27.86 25.3588 29.4228C28.6551 30.7216 29.3259 30.4632 30.0414 30.3982C30.7569 30.3332 32.3501 29.4553 32.6753 28.5448C33.0005 27.6345 33.0005 26.8542 32.9029 26.6911C32.8054 26.5286 32.5452 26.4312 32.1549 26.2362C31.7647 26.0412 29.8463 25.0978 29.4885 24.9679C29.1308 24.8379 28.8706 24.7729 28.6104 25.1633C28.3502 25.5532 27.6028 26.4312 27.3752 26.6911C27.1475 26.9517 26.9199 26.9842 26.5296 26.7892C26.1393 26.5936 24.8826 26.1824 23.3916 24.8541C22.2316 23.8208 21.4484 22.5445 21.2208 22.1542C20.9931 21.7642 21.1964 21.553 21.3921 21.3586C21.5673 21.184 21.7824 20.9035 21.9775 20.6758C22.1722 20.4482 22.2373 20.2857 22.3674 20.0257C22.4975 19.7653 22.4324 19.5377 22.3348 19.3427C22.2373 19.1478 21.4789 17.2196 21.1319 16.4487Z" fill="white"/>
<path id="Vector_4" d="M36.0827 11.9461C33.134 8.99773 29.213 7.37318 25.0356 7.37134C16.4272 7.37134 9.42167 14.3688 9.41821 22.9696C9.4172 25.7189 10.1361 28.4026 11.5027 30.7682L9.28711 38.8514L17.566 36.6823C19.8471 37.9252 22.4153 38.5802 25.0288 38.5813H25.0355H25.0356C33.6425 38.5813 40.649 31.5826 40.6527 22.9822C40.6541 18.8139 39.0311 14.8946 36.0827 11.9461ZM25.0356 35.9467H25.0305C22.7009 35.9455 20.4164 35.3206 18.4238 34.1392L17.9496 33.8583L13.0367 35.1453L14.3484 30.361L14.0394 29.8706C12.7399 27.8061 12.0539 25.4203 12.055 22.9706C12.0578 15.8219 17.8805 10.0061 25.0405 10.0061C28.5077 10.0075 31.7664 11.3579 34.2174 13.8084C36.6681 16.259 38.0168 19.5166 38.0158 22.9812C38.0127 30.1301 32.1898 35.9467 25.0356 35.9467Z" fill="white"/>
</g>
</g>
<defs>
<linearGradient id="paint0_linear_505_61" x1="24.9697" y1="38.3068" x2="24.9697" y2="7.91655" gradientUnits="userSpaceOnUse">
<stop stop-color="#20B038"/>
<stop offset="1" stop-color="#60D66A"/>
</linearGradient>
</defs>
</svg>
